#!OML:ASF F:\VICON\USERDATA\INSTALL\rory3\rory3.ASF
:FULLY-SPECIFIED
:DEGREES
264
root 0.0759766 17.7004 3.49391 -2.45532 -1.61422 0.542921
lowerback 4.32581 -0.815291 -1.63952
upperback -0.876537 -1.07551 3.24947
thorax -3.23984 -0.473479 4.36103
lowerneck -18.457 -3.55702 -8.9577
upperneck 23.5364 -3.79297 5.53487
head 10.9427 -1.86553 2.94595
rclavicle -2.10215e-014 -7.15625e-015
rhumerus -39.699 -11.1116 -73.1272
rradius 39.3518
rwrist -1.31458
rhand -13.2116 16.0932
rfingers 7.12502
rthumb 12.8893 -13.4888
lclavicle -2.10215e-014 -7.15625e-015
lhumerus -40.9751 8.47897 80.4637
lradius 40.2231
lwrist 0.759236
lhand -19.7813 25.1027
lfingers 7.12502
lthumb 6.55092 54.9814
rfemur -3.86043 6.02746 23.297
rtibia 22.7429
rfoot -10.484 -4.66544
rtoes 3.55259
lfemur -4.60841 -3.89292 -22.3713
ltibia 22.4924
lfoot -11.2071 2.98904
ltoes 0.116998
265
root 0.0773747 17.7016 3.51171 -2.42105 -1.57162 0.688442
lowerback 4.32122 -0.798943 -1.73756
upperback -0.889115 -1.06103 3.18026
thorax -3.25105 -0.464629 4.3435
lowerneck -18.9165 -3.62315 -8.98914
upperneck 24.0481 -3.9112 5.74704
head 11.2379 -1.89457 3.01811
rclavicle 2.44008e-014 -3.10104e-014
rhumerus -39.794 -11.1137 -73.2164
rradius 39.4092
rwrist -0.996987
rhand -13.1329 15.2981
rfingers 7.12502
rthumb 12.9651 -14.2791
lclavicle 2.44008e-014 -3.10104e-014
lhumerus -41.1592 8.37915 80.4535
lradius 40.3861
lwrist 0.654205
lhand -19.8323 24.9861
lfingers 7.12502
lthumb 6.50175 54.8663
rfemur -3.77506 6.06902 23.1332
rtibia 22.6903
rfoot -10.5661 -4.73294
rtoes 3.98615
lfemur -4.44701 -4.00367 -22.5593
ltibia 22.2649
lfoot -11.225 3.06098
ltoes 0.168614
266
root 0.0760202 17.7048 3.53304 -2.37321 -1.56865 0.825918
lowerback 4.06255 -0.776057 -1.86713
upperback -0.786519 -1.03967 3.13697
thorax -2.99955 -0.458014 4.36263
lowerneck -19.0388 -3.6606 -8.98645
upperneck 24.2207 -3.98 5.8168
head 11.3342 -1.9166 3.03544
rclavicle -2.76311e-014 7.95139e-016
rhumerus -39.701 -11.199 -73.2911
rradius 39.3683
rwrist -0.609285
rhand -12.6417 14.6867
rfingers 7.12502
rthumb 13.4386 -14.8598
lclavicle -2.76311e-014 7.95139e-016
lhumerus -41.0806 8.33889 80.4923
lradius 40.3196
lwrist 0.494382
lhand -19.708 24.6687
lfingers 7.12502
lthumb 6.62168 54.5451
rfemur -3.70422 6.23485 23.0022
rtibia 22.6412
rfoot -10.5415 -4.86318
rtoes 4.09824
lfemur -4.30654 -4.03365 -22.7216
ltibia 22.0437
lfoot -11.1928 3.10137
ltoes 0.0726042
267
root 0.0739383 17.7072 3.55413 -2.28331 -1.68951 0.758373
lowerback 3.89757 -0.723125 -1.80167
upperback -0.767115 -0.964834 3.15666
thorax -2.89392 -0.423811 4.33746
lowerneck -18.881 -3.66778 -8.97993
upperneck 24.0849 -3.99598 5.79567
head 11.253 -1.92684 3.02229
rclavicle 5.96354e-016 4.29375e-014
rhumerus -39.7238 -11.1585 -73.3788
rradius 39.3959
rwrist -0.187878
rhand -12.1486 13.1219
rfingers 7.12502
rthumb 13.9138 -16.3926
lclavicle 5.96354e-016 4.29375e-014
lhumerus -41.0304 8.29215 80.5205
lradius 40.1492
lwrist 0.449679
lhand -19.5353 24.4755
lfingers 7.12502
lthumb 6.78847 54.3467
rfemur -3.6954 6.49356 23.1053
rtibia 22.5794
rfoot -10.5071 -4.99168
rtoes 3.88725
lfemur -4.21004 -3.99611 -22.6508
ltibia 21.8176
lfoot -11.1308 3.16479
ltoes 0.112674
268
root 0.0762968 17.7103 3.57305 -2.19674 -1.70607 0.801626
lowerback 3.88135 -0.707754 -1.8088
upperback -0.844295 -0.943821 3.13946
thorax -2.96658 -0.410938 4.32321
lowerneck -18.5264 -3.7125 -8.83933
upperneck 23.751 -4.05929 5.56038
head 11.0562 -1.97387 2.89779
rclavicle -1.2921e-015 6.36111e-015
rhumerus -39.9109 -11.0075 -73.4676
rradius 39.4677
rwrist 0.15829
rhand -12.2146 11.9292
rfingers 7.12502
rthumb 13.8502 -17.5896
lclavicle -1.2921e-015 6.36111e-015
lhumerus -41.0808 8.28346 80.5194
lradius 39.8838
lwrist 0.520031
lhand -19.7058 23.9344
lfingers 7.12502
lthumb 6.62384 53.8108
rfemur -3.67785 6.56222 23.0516
rtibia 22.499
rfoot -10.545 -5.0763
rtoes 3.79421
lfemur -4.14267 -4.0774 -22.7266
ltibia 21.6407
lfoot -11.0793 3.28216
ltoes 0.377111
269
root 0.0789373 17.7137 3.59403 -2.13067 -1.59626 0.95367
lowerback 3.7699 -0.724788 -1.89276
upperback -0.866582 -0.972028 3.0659
thorax -2.92419 -0.424625 4.29379
lowerneck -18.3658 -3.75608 -8.69637
upperneck 23.6122 -4.13297 5.40624
head 10.9727 -2.01436 2.8045
rclavicle 1.4064e-014 -6.36111e-015
rhumerus -40.1312 -10.8665 -73.6049
rradius 39.5099
rwrist 0.0701715
rhand -12.1366 12.1603
rfingers 7.12502
rthumb 13.9253 -17.3534
lclavicle 1.4064e-014 -6.36111e-015
lhumerus -41.1379 8.34954 80.4687
lradius 39.7074
lwrist 0.60312
lhand -19.6366 23.891
lfingers 7.12502
lthumb 6.69068 53.7653
rfemur -3.62176 6.48232 22.8611
rtibia 22.4187
rfoot -10.6041 -5.05786
rtoes 4.15643
lfemur -4.06751 -4.23736 -22.9345
ltibia 21.5386
lfoot -11.1416 3.36172
ltoes 0.489967
270
root 0.0803724 17.7148 3.60999 -2.0715 -1.4424 0.924956
lowerback 3.62986 -0.741919 -1.8102
upperback -0.803005 -0.992079 3.03744
thorax -2.77957 -0.439765 4.21439
lowerneck -18.5424 -3.81074 -8.63764
upperneck 23.6691 -4.20605 5.3766
head 11.032 -2.04361 2.77203
rclavicle 1.2424e-015 -3.02153e-014
rhumerus -40.12 -10.8825 -73.6972
rradius 39.4068
rwrist 0.205394
rhand -11.8918 12.8621
rfingers 7.12502
rthumb 14.1613 -16.6353
lclavicle 1.2424e-015 -3.02153e-014
lhumerus -41.2343 8.40947 80.4582
lradius 39.9276
lwrist 0.714437
lhand -19.3462 24.4694
lfingers 7.12502
lthumb 6.97094 54.3346
rfemur -3.56413 6.38571 22.883
rtibia 22.3708
rfoot -10.6764 -5.086
rtoes 4.52296
lfemur -4.00374 -4.32948 -22.9309
ltibia 21.45
lfoot -11.2122 3.29415
ltoes 0.188817
271
root 0.0791223 17.7141 3.62053 -2.01292 -1.29327 0.807196
lowerback 3.60579 -0.777336 -1.7259
upperback -0.837929 -1.0335 3.08573
thorax -2.7991 -0.460649 4.21934
lowerneck -18.4585 -3.84902 -8.68113
upperneck 23.6674 -4.24937 5.35711
head 11.0195 -2.07092 2.76603
rclavicle -1.77912e-014 2.8625e-014
rhumerus -40.2392 -10.7876 -73.7078
rradius 39.4683
rwrist 0.833952
rhand -12.1523 14.2308
rfingers 7.12502
rthumb 13.9102 -15.2839
lclavicle -1.77912e-014 2.8625e-014
lhumerus -41.5597 8.62065 80.4148
lradius 40.2299
lwrist 0.757892
lhand -19.0477 24.8461
lfingers 7.12502
lthumb 7.25911 54.7015
rfemur -3.55209 6.42987 23.0404
rtibia 22.3495
rfoot -10.731 -5.27307
rtoes 4.54407
lfemur -3.98935 -4.44362 -22.801
ltibia 21.3479
lfoot -11.1867 3.22984
ltoes -0.262474
272
root 0.0773941 17.7145 3.63036 -1.98789 -1.22679 0.794994
lowerback 3.84717 -0.774873 -1.7591
upperback -1.04291 -1.02792 3.127
thorax -3.14634 -0.447932 4.28982
lowerneck -18.1203 -3.85863 -8.84542
upperneck 23.6877 -4.25052 5.37496
head 10.9668 -2.08969 2.80289
rclavicle 1.16786e-014 -1.11319e-014
rhumerus -40.6358 -10.6811 -73.623
rradius 39.5116
rwrist 1.27461
rhand -12.3149 15.1101
rfingers 7.12502
rthumb 13.7535 -14.4153
lclavicle 1.16786e-014 -1.11319e-014
lhumerus -42.0443 8.82872 80.3708
lradius 40.3049
lwrist 0.830701
lhand -18.7716 24.9626
lfingers 7.12502
lthumb 7.5256 54.8087
rfemur -3.54259 6.49001 23.0859
rtibia 22.323
rfoot -10.6802 -5.44852
rtoes 3.91417
lfemur -3.9721 -4.50766 -22.7776
ltibia 21.2572
lfoot -11.124 3.24899
ltoes -0.447046
273
root 0.076364 17.7136 3.64366 -2.01035 -1.13264 0.93183
lowerback 3.98619 -0.749396 -1.88865
upperback -1.093 -1.0019 3.0736
thorax -3.2777 -0.429793 4.30993
lowerneck -18.0843 -3.88324 -8.96543
upperneck 23.6969 -4.27928 5.47294
head 10.9711 -2.1023 2.85509
rclavicle 1.43622e-014 -1.35174e-014
rhumerus -40.7724 -10.7633 -73.6299
rradius 39.3757
rwrist 1.58287
rhand -11.9531 14.1461
rfingers 7.12502
rthumb 14.1022 -15.3554
lclavicle 1.43622e-014 -1.35174e-014
lhumerus -42.2637 9.05092 80.3131
lradius 40.2567
lwrist 0.873124
lhand -18.7234 24.4757
lfingers 7.12502
lthumb 7.5721 54.3201
rfemur -3.45394 6.45525 22.949
rtibia 22.2816
rfoot -10.6756 -5.54046
rtoes 3.6707
lfemur -3.87537 -4.55036 -22.931
ltibia 21.1509
lfoot -11.0468 3.22802
ltoes -0.253551
274
root 0.0730834 17.7137 3.66105 -2.0263 -0.966274 1.03987
lowerback 3.77186 -0.764403 -2.03638
upperback -0.912963 -1.0318 3.04583
thorax -2.96598 -0.450608 4.35877
lowerneck -18.2887 -3.89184 -9.1166
upperneck 23.6443 -4.27211 5.65446
head 10.9985 -2.08661 2.9461
rclavicle -6.26172e-015 -1.51076e-014
rhumerus -40.6178 -10.8332 -73.7377
rradius 39.2695
rwrist 1.91479
rhand -11.6191 13.145
rfingers 7.12502
rthumb 14.424 -16.3338
lclavicle -6.26172e-015 -1.51076e-014
lhumerus -42.1297 9.26655 80.3486
lradius 40.2048
lwrist 1.05681
lhand -18.8566 24.0237
lfingers 7.12502
lthumb 7.44356 53.8728
rfemur -3.31299 6.38964 22.8452
rtibia 22.2109
rfoot -10.7282 -5.61074
rtoes 4.08792
lfemur -3.7484 -4.63054 -23.0547
ltibia 21.031
lfoot -10.9943 3.14535
ltoes -0.101689
275
root 0.0732505 17.7165 3.67849 -1.99928 -0.935276 1.00835
lowerback 3.58009 -0.749096 -1.94675
upperback -0.808027 -1.00851 3.00494
thorax -2.75366 -0.446325 4.25795
lowerneck -18.286 -3.86598 -9.21279
upperneck 23.5343 -4.26114 5.87364
head 10.9632 -2.06231 3.04308
rclavicle 2.03754e-015 -3.26007e-014
rhumerus -40.5472 -10.9784 -73.861
rradius 38.9396
rwrist 2.29968
rhand -11.8203 13.4955
rfingers 7.12502
rthumb 14.2301 -15.997
lclavicle 2.03754e-015 -3.26007e-014
lhumerus -42.037 9.57956 80.2471
lradius 40.1269
lwrist 1.1801
lhand -18.8626 24.2199
lfingers 7.12502
lthumb 7.43779 54.0691
rfemur -3.2178 6.38454 22.8713
rtibia 22.1153
rfoot -10.7845 -5.58596
rtoes 4.41109
lfemur -3.64372 -4.68507 -23.0266
ltibia 20.9237
lfoot -11.0791 3.12676
ltoes 0.233367
276
root 0.0797268 17.7175 3.69613 -1.99981 -1.12035 0.909881
lowerback 3.48372 -0.643989 -1.71762
upperback -0.732362 -0.859069 2.97583
thorax -2.63789 -0.37862 4.08623
lowerneck -18.3352 -3.86087 -9.24951
upperneck 23.4821 -4.25917 5.96209
head 10.9559 -2.05244 3.08101
rclavicle -1.58779e-014 5.56597e-015
rhumerus -40.447 -11.1845 -73.8877
rradius 38.4781
rwrist 2.54009
rhand -12.2211 14.2941
rfingers 7.12502
rthumb 13.8439 -15.2252
lclavicle -1.58779e-014 5.56597e-015
lhumerus -42.1605 9.9422 80.1304
lradius 40.3736
lwrist 1.14853
lhand -18.8427 24.0533
lfingers 7.12502
lthumb 7.45702 53.9019
rfemur -3.10295 6.40333 22.9437
rtibia 21.9944
rfoot -10.7745 -5.40677
rtoes 4.35837
lfemur -3.51026 -4.64326 -22.9549
ltibia 20.8625
lfoot -11.175 3.27404
ltoes 0.646183
277
root 0.086163 17.7151 3.71349 -2.10591 -1.22018 0.914205
lowerback 3.55219 -0.563425 -1.60526
upperback -0.660978 -0.74884 2.92836
thorax -2.61382 -0.32695 3.96722
lowerneck -18.4789 -3.88945 -9.23498
upperneck 23.5602 -4.29123 5.95592
head 11.0152 -2.06476 3.07176
rclavicle 6.83322e-015 -1.98785e-014
rhumerus -40.4751 -11.2811 -73.9144
rradius 38.2489
rwrist 2.58157
rhand -12.2276 14.4839
rfingers 7.12502
rthumb 13.8376 -15.0358
lclavicle 6.83322e-015 -1.98785e-014
lhumerus -42.2696 10.2842 80.0496
lradius 40.5769
lwrist 1.34292
lhand -18.8147 24.2243
lfingers 7.12502
lthumb 7.48403 54.0719
rfemur -2.8881 6.35688 22.9065
rtibia 21.8925
rfoot -10.7724 -5.23781
rtoes 4.28637
lfemur -3.2878 -4.55915 -23.0052
ltibia 20.8141
lfoot -11.1776 3.32588
ltoes 0.182618
